<?xml version="1.0" encoding="UTF-8"?> <svg xmlns="http://www.w3.org/2000/svg" xmlns:xlink="http://www.w3.org/1999/xlink" width="604px" height="443px" viewBox="0 0 604 443"><!-- Generator: Sketch 55.1 (78136) - https://sketchapp.com --><title>Group 4</title><desc>Created with Sketch.</desc><defs><path d="M22.1538951,0.813265794 C22.3204383,0.808403218 22.4857659,0.80597193 22.6535248,0.80597193 C32.0139831,0.808403218 37.7323722,7.34613631 39.3528255,17.0700722 C40.0603303,23.195702 39.5886605,29.3213318 38.8811557,35.4493929 C38.1772978,41.5725914 36.9969076,47.9328404 36.5252377,54.2955208 C36.2906185,57.5911315 36.2906185,60.6582012 36.9969076,63.7191926 C38.1772978,69.6114188 40.5332158,75.2641631 38.8811557,81.1527423 C35.1114438,93.6410525 19.0904724,101.180476 9.19513074,92.4655248 C4.48329484,88.459978 3.06950094,81.863894 2.83488166,75.7358329 C2.36321181,67.0184503 3.30533587,58.064017 2.36321181,49.3454187 C1.41987212,39.9241782 -0.22854106,30.2634558 1.18525284,20.8385684 C2.36321181,13.5361952 5.42541889,6.93646431 11.7868836,3.64328488" id="path-1"></path><linearGradient x1="49.9093314%" y1="-5.1549019%" x2="50.2207904%" y2="103.786044%" id="linearGradient-3"><stop stop-color="#E8F652" offset="0%"></stop><stop stop-color="#70B121" offset="100%"></stop></linearGradient><polygon id="path-4" points="0.0105177278 95.3760522 35.1972224 115.62255 35.1986367 20.4360082 0.0119319844 0.189510387"></polygon><linearGradient x1="49.9999658%" y1="3.30797221e-06%" x2="49.9999658%" y2="100.000006%" id="linearGradient-6"><stop stop-color="#64C8F0" offset="0%"></stop><stop stop-color="#547EE2" offset="100%"></stop></linearGradient><linearGradient x1="42.6966661%" y1="-32.9401042%" x2="52.1883917%" y2="86.2253729%" id="linearGradient-7"><stop stop-color="#FFDA5A" offset="0%"></stop><stop stop-color="#F9AB57" offset="100%"></stop></linearGradient><polygon id="path-8" points="0.568531161 74.8283177 0.568531161 0.741070469 86.8155568 50.6813002 86.8127283 124.768547"></polygon><linearGradient x1="49.9999954%" y1="2.39458139e-06%" x2="49.9999954%" y2="100%" id="linearGradient-10"><stop stop-color="#64C8F0" offset="0%"></stop><stop stop-color="#547EE2" offset="100%"></stop></linearGradient><polygon id="path-11" points="62.4754041 74.4478827 0.0685022492 110.566583 0.0685022492 36.4793352 62.4754041 0.360635438"></polygon><linearGradient x1="49.9999839%" y1="6.28809754e-06%" x2="49.9999839%" y2="99.9999906%" id="linearGradient-13"><stop stop-color="#64C8F0" offset="0%"></stop><stop stop-color="#547EE2" offset="100%"></stop></linearGradient><polygon id="path-14" points="0.517900774 0.430641141 193.671413 0.430641141 193.671413 285.679837 0.517900774 285.679837"></polygon><path d="M27.7405295,0.0289885095 C27.9490706,0.022899719 28.1560895,0.0198553237 28.3661528,0.0198553237 C40.0870745,0.022899719 47.2474921,8.20927855 49.2765815,20.3853374 C50.1625006,28.0556912 49.5718879,35.726045 48.6859689,43.3994433 C47.8046164,51.0667527 46.3265625,59.0308907 45.7359499,66.9980731 C45.4421657,71.1247508 45.4421657,74.9652554 46.3265625,78.798149 C47.8046164,86.1762409 50.7546354,93.2544599 48.6859689,100.627985 C43.965634,116.265521 23.9045915,125.706191 11.5139028,114.793556 C5.61386484,109.777915 3.843549,101.518471 3.54976486,93.8450726 C2.95915218,82.9293934 4.13885534,71.7168857 2.95915218,60.7996843 C1.77792683,49.0026527 -0.286173154,36.9057482 1.48414269,25.10415 C2.95915218,15.9603089 6.793568,7.69629795 14.7592282,3.57266458" id="path-16"></path><path d="M0,15.3650628 C0,23.5803634 6.65809241,30.2384558 14.8703486,30.2384558 L14.8703486,30.2384558 C23.0856492,30.2384558 29.7437416,23.5803634 29.7437416,15.3650628 L29.7437416,15.3650628 C29.7437416,7.15280664 23.0856492,0.494714228 14.8703486,0.494714228 L14.8703486,0.494714228 C6.65809241,0.494714228 0,7.15280664 0,15.3650628" id="path-18"></path><linearGradient x1="50.000022%" y1="6.24360287e-05%" x2="50.000022%" y2="99.9999498%" id="linearGradient-20"><stop stop-color="#75B323" offset="0%"></stop><stop stop-color="#E2F250" offset="100%"></stop></linearGradient><path d="M0.246596015,6.33690872 C0.246596015,9.56396768 2.86173154,12.1791032 6.0887905,12.1791032 L6.0887905,12.1791032 C9.31584947,12.1791032 11.930985,9.56396768 11.930985,6.33690872 L11.930985,6.33690872 C11.930985,3.11137195 9.31584947,0.494714228 6.0887905,0.494714228 L6.0887905,0.494714228 C2.86173154,0.494714228 0.246596015,3.11137195 0.246596015,6.33690872" id="path-21"></path><linearGradient x1="50%" y1="0.000158936946%" x2="50%" y2="100.000496%" id="linearGradient-23"><stop stop-color="#75B323" offset="0%"></stop><stop stop-color="#E2F250" offset="100%"></stop></linearGradient><path d="M0,15.3650628 C0,23.5803634 6.65809241,30.2384558 14.8703486,30.2384558 L14.8703486,30.2384558 C23.0856492,30.2384558 29.7437416,23.5803634 29.7437416,15.3650628 L29.7437416,15.3650628 C29.7437416,7.15280664 23.0856492,0.494714228 14.8703486,0.494714228 L14.8703486,0.494714228 C6.65809241,0.494714228 0,7.15280664 0,15.3650628" id="path-24"></path><path d="M0.246596015,6.33690872 C0.246596015,9.56396768 2.86173154,12.1791032 6.0887905,12.1791032 L6.0887905,12.1791032 C9.31584947,12.1791032 11.930985,9.56396768 11.930985,6.33690872 L11.930985,6.33690872 C11.930985,3.11137195 9.31584947,0.494714228 6.0887905,0.494714228 L6.0887905,0.494714228 C2.86173154,0.494714228 0.246596015,3.11137195 0.246596015,6.33690872" id="path-26"></path><path d="M0,15.3650628 C0,23.5803634 6.65809241,30.2384558 14.8703486,30.2384558 L14.8703486,30.2384558 C23.0856492,30.2384558 29.7437416,23.5803634 29.7437416,15.3650628 L29.7437416,15.3650628 C29.7437416,7.15280664 23.0856492,0.494714228 14.8703486,0.494714228 L14.8703486,0.494714228 C6.65809241,0.494714228 0,7.15280664 0,15.3650628" id="path-28"></path><path d="M0.246596015,6.33690872 C0.246596015,9.56396768 2.86173154,12.1791032 6.0887905,12.1791032 L6.0887905,12.1791032 C9.31584947,12.1791032 11.930985,9.56396768 11.930985,6.33690872 L11.930985,6.33690872 C11.930985,3.11137195 9.31584947,0.494714228 6.0887905,0.494714228 L6.0887905,0.494714228 C2.86173154,0.494714228 0.246596015,3.11137195 0.246596015,6.33690872" id="path-30"></path><linearGradient x1="49.9093314%" y1="-5.1549019%" x2="50.2207904%" y2="103.786044%" id="linearGradient-32"><stop stop-color="#E8F652" offset="0%"></stop><stop stop-color="#70B121" offset="100%"></stop></linearGradient></defs><g id="Desktop-Componets" stroke="none" stroke-width="1" fill="none" fill-rule="evenodd"><g id="SPA---Index1---Desktop" transform="translate(-871.000000, -181.000000)"><g id="Hero" transform="translate(0.000000, 162.000000)"><g id="Group-4" transform="translate(871.000000, 19.000000)"><g id="Group-3" transform="translate(0.000000, 72.742754)"><polygon id="Fill-17" fill="#5B2418" points="19.3278877 92.9337908 19.3278877 125.211569 25.4535174 121.914742 25.4535174 92.9337908"></polygon><g id="Group-20"><mask id="mask-2" fill="white"><use xlink:href="#path-1"></use></mask><g id="Clip-19"></g><path d="M22.1538951,0.813265794 C18.3841833,0.813265794 14.6144714,1.99122477 11.7868836,3.64328488 C5.42541889,6.93646431 2.36321181,13.5361952 1.18525284,20.8385684 C-0.22854106,30.2634558 1.41987212,39.9241782 2.36321181,49.3454187 C3.30533587,58.064017 2.36321181,67.0184503 2.83488166,75.7358329 C3.06950094,81.863894 4.48329484,88.459978 9.19513074,92.4655248 C19.0904724,101.180476 35.1114438,93.6410525 38.8811557,81.1527423 C40.5332158,75.2641631 38.1772978,69.6114188 36.9969076,63.7191926 C36.2906185,60.6582012 36.2906185,57.5911315 36.5252377,54.2955208 C36.9969076,47.9328404 38.1772978,41.5725914 38.8811557,35.4493929 C39.5886605,29.3213318 40.0603303,23.195702 39.3528255,17.0700722 C37.7323722,7.34613631 32.0139831,0.808403218 22.6535248,0.80597193 C22.4857659,0.80597193 22.3204383,0.808403218 22.1538951,0.813265794" id="Fill-18" fill="url(#linearGradient-3)" mask="url(#mask-2)"></path></g></g><path d="M536.497608,282.894459 L405.066498,358.487889 L239.954866,349.271179 C239.954866,349.271179 42.1541065,234.723464 32.9925521,229.551528 L237.337077,112.589677 L536.497608,282.894459 Z" id="Fill-1" fill="#666766" opacity="0.130789621"></path><g id="Group-5" transform="translate(225.902760, 279.894396)"><mask id="mask-5" fill="white"><use xlink:href="#path-4"></use></mask><g id="Clip-4"></g><polygon id="Fill-3" fill="url(#linearGradient-6)" mask="url(#mask-5)" points="0.0105177278 95.3760522 35.1972224 115.62255 35.1986367 20.4360082 0.0119319844 0.189510387"></polygon></g><polygon id="Fill-6" fill="#E0E0E0" points="264.809719 297.256659 222.486675 272.828204 223.739707 272.310586 266.048608 296.743284 266.045779 397.540182 264.804062 398.173769"></polygon><polygon id="Fill-7" fill="#E0E0E0" points="230.137662 327.473949 231.376551 328.18532 231.496763 373.028569 261.174938 389.602242 261.174938 390.81426 230.25646 373.544772"></polygon><polygon id="Fill-8" fill="#E0E0E0" points="230.117721 282.803381 231.358024 283.516166 231.496621 322.459136 261.174796 339.512243 261.174796 340.741232 230.256318 322.97534"></polygon><polygon id="Fill-9" fill="#FFFFFF" points="48.8900693 280.484848 218.665919 378.501318 218.631977 271.135198 264.076285 297.371072 264.074871 404.717393 287.93338 418.492252 287.934794 280.554147 48.8914836 142.546743"></polygon><polygon id="Fill-10" fill="#C1C1C1" points="77.9835908 278.553681 171.485753 332.534442 171.487167 248.349402 77.9850051 194.367227"></polygon><path d="M230.25646,282.801966 L230.25646,322.973926 L260.968456,340.751131 L261.005227,300.580586 L230.25646,282.801966 Z M230.25646,373.5435 L261.174938,390.811573 L261.174938,345.148055 L230.325758,327.475504 L230.25646,373.5435 Z M224.931783,374.824816 L222.668973,373.626941 L222.57846,272.8258 L264.849177,297.255669 L264.825134,398.05681 L237.470583,382.269463 L252.968007,391.087353 L224.931783,374.824816 Z" id="Fill-11" fill="url(#linearGradient-7)"></path><polygon id="Fill-12" fill="#3A3007" points="264.942376 298.270398 210.352071 266.937543 211.482062 266.316684 266.041253 297.650954 266.024282 406.039581 264.939547 406.66044"></polygon><polygon id="Fill-13" fill="#3A3007" points="215.764431 378.463133 219.175618 376.730668 219.175618 278.964522 215.764431 277.141546"></polygon><polygon id="Fill-14" fill="#3A3007" points="219.1759 375.355728 222.752555 373.213129 222.817611 281.096939 219.1759 278.965654"></polygon><polygon id="Fill-15" fill="#A2A2A2" points="196.522196 389.884952 236.102996 412.739339 263.16904 397.113218 223.58824 374.258831"></polygon><polygon id="Fill-16" fill="#0D2845" points="236.070327 412.739622 263.101014 397.1135 263.101014 398.698882 236.070327 414.325003 196.505084 391.472031 196.505084 389.885235"></polygon><polygon id="Fill-17" fill="#C1C1C1" points="210.351929 266.937118 264.942235 298.269974 264.939406 406.660015 258.416855 402.912235 258.399883 402.487958 258.428169 402.503515 258.436654 301.705203 215.764289 277.142394 215.764289 378.462567 210.356172 375.328574"></polygon><polygon id="Fill-18" fill="#3A3007" points="171.486743 248.349544 77.9845808 194.367369 81.138373 192.685817 174.661749 246.669407 174.671649 330.855861 171.485329 332.534583"></polygon><g id="Group-21" transform="translate(82.073480, 200.696025)"><mask id="mask-9" fill="white"><use xlink:href="#path-8"></use></mask><g id="Clip-20"></g><polygon id="Fill-19" fill="url(#linearGradient-10)" mask="url(#mask-9)" points="0.568531161 74.8283177 86.8127283 124.768547 86.8155568 50.6813002 0.568531161 0.741070469"></polygon></g><polygon id="Fill-22" fill="#3A3007" points="82.6420107 275.404697 85.7859031 273.682133 168.889036 321.089429 168.880551 325.320884"></polygon><polygon id="Fill-23" fill="#C1C1C1" points="394.86207 336.159747 325.201446 376.317564 325.198618 292.129696 394.86207 251.973293"></polygon><polygon id="Fill-24" fill="#3A3007" points="325.198759 292.129979 394.862212 251.972162 391.707005 250.292025 322.025167 290.451256 322.015268 374.63771 325.201588 376.316432"></polygon><g id="Group-27" transform="translate(327.729236, 258.680547)"><mask id="mask-12" fill="white"><use xlink:href="#path-11"></use></mask><g id="Clip-26"></g><polygon id="Fill-25" fill="url(#linearGradient-13)" mask="url(#mask-12)" points="62.4754041 74.4478827 0.0685022492 110.566583 0.0685022492 36.4793352 62.4754041 0.360635438"></polygon></g><polygon id="Fill-28" fill="#3A3007" points="390.204923 333.009491 387.059617 331.28834 327.798021 364.872692 327.805093 369.104148"></polygon><polygon id="Fill-29" fill="#3A3007" points="390.113704 333.009491 387.131037 331.28834 387.131037 260.639151 390.113704 258.830317"></polygon><polygon id="Fill-30" fill="#3A3007" points="82.7325231 275.404697 85.7166046 273.682133 85.7166046 203.034357 82.7325231 201.222695"></polygon><polygon id="Fill-31" fill="#666766" points="132.460332 -4.54747351e-13 24.0886753 175.125983 60.184747 195.809486 60.1819185 195.817972 99.4544105 218.321623 99.4529963 218.324451 138.731145 240.836588 138.725488 240.84366 178.013537 263.357211 178.022023 263.345897 217.286029 286.078657 217.3129 286.031987 256.554279 308.521496 366.221394 133.242773 328.810064 112.696453 328.699752 112.866164 289.522015 90.2097727 289.527672 90.2012872 250.270736 67.5364106 250.197195 67.6495511 210.995416 45.0172025 210.921874 45.1345858 171.725752 22.5078941 171.649382 22.6266917"></polygon><polygon id="Fill-32" fill="#DBE8EE" points="226.96803 91.4022739 302.035357 135.006634 232.483631 250.578271 155.128037 205.742093"></polygon><polygon id="Fill-33" fill="#FFFFFF" points="227.994922 94.9633721 298.219834 136.138039 229.202697 245.256423 158.960813 203.803147"></polygon><polygon id="Fill-34" fill="#FFFFFF" points="227.869194 94.6098079 227.500073 94.8063896 298.219976 136.138039 298.559397 135.942872"></polygon><polygon id="Fill-35" fill="#DDDDDD" points="298.218844 136.136342 298.55968 135.942589 229.94702 245.438579 229.200293 245.886899"></polygon><polygon id="Fill-36" fill="#F4F4F4" points="298.218844 136.136342 297.890737 135.945418 228.899056 245.711531 229.200293 245.886899"></polygon><polygon id="Fill-37" fill="#DDDDDD" points="227.870609 95.4910312 228.161946 95.660742 158.832258 204.253022 158.391009 204.421319"></polygon><polygon id="Fill-38" fill="#F4F4F4" points="227.994922 95.0849981 227.505589 94.8007326 157.847794 204.104384 158.390868 204.421177"></polygon><polygon id="Fill-39" fill="#FFFFFF" points="158.978067 203.797632 158.546719 203.919258 229.004984 245.369705 229.092668 245.086854"></polygon><polygon id="Fill-40" fill="#EAEAEA" points="158.546436 203.919258 158.390868 204.421319 228.898632 245.711955 229.004701 245.369705"></polygon><g id="Group-84" transform="translate(72.173683, 42.299284)"><path d="M101.100256,170.028861 L89.7423609,163.40024 C88.6052986,162.738368 87.0255739,160.537784 88.6873255,158.221232 L94.7474151,148.659443 C95.4121157,147.651078 97.4825874,147.283371 98.6196497,147.948072 L110.666288,154.918943 C111.801936,155.582229 112.360567,156.843746 111.991446,158.085463 L105.253928,168.696631 C104.203135,170.194329 102.240147,170.690733 101.100256,170.028861 M118.791192,180.193123 L107.433297,173.564502 C106.29482,172.90263 104.71651,170.703461 106.379676,168.386909 L112.445422,158.82512 C113.110123,157.81534 115.182009,157.447634 116.316243,158.112334 L128.364295,165.083205 C129.499943,165.747906 130.058574,167.008009 129.689453,168.249726 L122.950521,178.862307 C121.892657,180.360005 119.928254,180.856409 118.791192,180.193123 M136.330802,190.531339 L124.971493,183.904132 C123.837259,183.240846 122.257535,181.040263 123.919286,178.725125 L129.977962,169.163336 C130.642662,168.153556 132.713134,167.78585 133.848782,168.45055 L145.896834,175.421421 C147.032482,176.086122 147.591114,177.346224 147.220578,178.587942 L140.48306,189.199109 C139.430853,190.696807 137.466451,191.193211 136.330802,190.531339 M154.017496,200.697015 L142.658187,194.068395 C141.521124,193.406523 139.942814,191.205939 141.603151,188.889387 L147.671726,179.327598 C148.335013,178.317819 150.406899,177.951526 151.542547,178.614813 L163.590599,185.585683 C164.726247,186.250384 165.284878,187.510487 164.915757,188.752204 L158.176824,199.364786 C157.121789,200.862483 155.154558,201.358888 154.017496,200.697015 M111.25179,154.57245 L99.8924807,147.943829 C98.7582469,147.281957 97.177108,145.081374 98.8402737,142.764822 L104.90602,133.203033 C105.57355,132.194668 107.641193,131.826961 108.779669,132.490247 L120.824893,139.461118 C121.963369,140.125819 122.520587,141.387336 122.150051,142.627639 L115.412533,153.24022 C114.353255,154.736504 112.387438,155.234322 111.25179,154.57245 M128.939897,164.735298 L117.582002,158.108092 C116.446354,157.44622 114.86663,155.245636 116.528381,152.930498 L122.594128,143.365881 C123.260243,142.35893 125.330714,141.991223 126.467777,142.655924 L138.514415,149.626795 C139.651477,150.290081 140.210108,151.551598 139.840987,152.793315 L133.102055,163.401654 C132.041362,164.900766 130.075545,165.398584 128.939897,164.735298 M121.424538,139.199481 L110.065229,132.57086 C108.92958,131.908988 107.349856,129.708404 109.013022,127.393266 L115.078768,117.830063 C115.744883,116.821698 117.813941,116.45682 118.952417,117.118692 L130.997641,124.090977 C132.136117,124.752849 132.693334,126.01578 132.322799,127.256083 L125.583866,137.867251 C124.526002,139.364949 122.560186,139.861353 121.424538,139.199481 M139.047589,149.424556 L127.68828,142.795935 C126.551218,142.134063 124.971493,139.93348 126.636073,137.616927 L132.70182,128.055138 C133.367935,127.045359 135.436992,126.679067 136.574055,127.342353 L148.620692,134.313224 C149.759169,134.977925 150.316386,136.238027 149.945851,137.479745 L143.206918,148.092326 C142.14764,149.590024 140.180409,150.086428 139.047589,149.424556 M146.478094,175.074928 L135.120199,168.446307 C133.983136,167.784435 132.403412,165.583852 134.066578,163.2673 L140.133739,153.705511 C140.798439,152.697146 142.868911,152.329439 144.005973,152.99414 L156.051197,159.963596 C157.189673,160.628297 157.748305,161.889814 157.376355,163.131531 L150.638837,173.742699 C149.579558,175.243225 147.613742,175.7368 146.478094,175.074928 M164.166201,185.239191 L152.808306,178.61057 C151.672658,177.948698 150.091519,175.748114 151.754685,173.432976 L157.820432,163.868359 C158.487961,162.861408 160.557018,162.493701 161.694081,163.158402 L173.739304,170.129273 C174.877781,170.793973 175.436412,172.054076 175.064463,173.295793 L168.326944,183.906961 C167.267666,185.403244 165.301849,185.902477 164.166201,185.239191 M156.650842,159.701959 L145.292947,153.074752 C144.155884,152.411466 142.57616,150.210883 144.239325,147.895745 L150.305072,138.332541 C150.971187,137.324176 153.041659,136.959298 154.178721,137.62117 L166.223945,144.593455 C167.362421,145.255327 167.921053,146.518259 167.549103,147.758562 L160.81017,158.369729 C159.752306,159.867427 157.78649,160.365245 156.650842,159.701959 M174.272479,169.927034 L162.914584,163.298413 C161.777522,162.636541 160.199211,160.435958 161.862377,158.12082 L167.928124,148.557617 C168.592824,147.549252 170.66471,147.182959 171.798944,147.844831 L183.846996,154.817116 C184.984059,155.480403 185.54269,156.74192 185.170741,157.983637 L178.434636,168.594804 C177.373944,170.092502 175.410956,170.588906 174.272479,169.927034 M130.672362,123.668114 L119.314467,117.040908 C118.178819,116.376207 116.59768,114.178452 118.260846,111.863314 L124.328007,102.298697 C124.994121,101.290332 127.063179,100.924039 128.201655,101.585912 L140.246879,108.559611 C141.383941,109.221483 141.942573,110.484414 141.570623,111.723303 L134.833105,122.335885 C133.773827,123.840654 131.80801,124.331401 130.672362,123.668114 M148.360469,133.815406 L137.002574,127.186785 C135.866926,126.524913 134.285787,124.324329 135.950367,122.007777 L142.016114,112.445988 C142.682229,111.437623 144.751286,111.069916 145.888349,111.733203 L157.934987,118.704074 C159.072049,119.368774 159.63068,120.630291 159.258731,121.872008 L152.521212,132.483176 C151.461934,133.980874 149.496117,134.477278 148.360469,133.815406 M140.84511,108.00098 L129.487215,101.372359 C128.348738,100.710487 126.770428,98.5099034 128.433594,96.1933511 L134.49934,86.6315621 C135.164041,85.6231971 137.235927,85.2554904 138.371575,85.9187767 L150.419627,92.8910619 C151.555275,93.5543482 152.112492,94.8158651 151.743371,96.0575824 L145.004438,106.66875 C143.946574,108.165033 141.983586,108.662852 140.84511,108.00098 M158.469576,118.223226 L147.111681,111.597434 C145.974618,110.932734 144.396308,108.734979 146.058059,106.418426 L152.116735,96.8538089 C152.780021,95.8468582 154.851907,95.4805657 155.988969,96.1438521 L168.035607,103.114723 C169.171255,103.776595 169.729887,105.039526 169.360766,106.281244 L162.621833,116.890997 C161.569626,118.388694 159.605224,118.887927 158.469576,118.223226 M166.122118,144.27949 L154.764223,137.653698 C153.625747,136.990412 152.047436,134.791243 153.709188,132.47469 L159.776349,122.911487 C160.441049,121.901708 162.512935,121.53683 163.648583,122.198702 L175.695221,129.170987 C176.832284,129.834273 177.389501,131.097204 177.02038,132.336093 L170.282861,142.948675 C169.223583,144.439301 167.260595,144.944191 166.122118,144.27949 M183.856896,154.370211 L172.497587,147.743005 C171.363353,147.078304 169.783629,144.880549 171.44538,142.565411 L177.511127,133.000794 C178.177242,131.991015 180.247713,131.626136 181.384776,132.288008 L193.429999,139.261708 C194.568476,139.92358 195.125693,141.186511 194.757986,142.4254 L188.019053,153.037982 C186.962604,154.535679 184.992544,155.027841 183.856896,154.370211 M176.071413,128.503458 L164.712104,121.874837 C163.575042,121.212965 161.996732,119.012382 163.658483,116.697244 L169.725644,107.13404 C170.390345,106.125675 172.462231,105.757969 173.597879,106.422669 L185.644517,113.39354 C186.781579,114.056826 187.34021,115.318343 186.969675,116.560061 L180.230742,127.171228 C179.172878,128.667512 177.208476,129.16533 176.071413,128.503458 M193.700122,138.725705 L182.340813,132.099912 C181.206579,131.436626 179.626855,129.237457 181.288606,126.920905 L187.345867,117.356287 C188.010568,116.349336 190.082454,115.983044 191.219516,116.64633 L203.266154,123.617201 C204.401802,124.279073 204.960433,125.542004 204.591312,126.783722 L197.85238,137.393475 C196.79593,138.891173 194.831528,139.390405 193.700122,138.725705 M150.609137,92.5162838 L139.251242,85.8890773 C138.112766,85.2272052 136.534455,83.0252077 138.196207,80.7100696 L144.264782,71.1482806 C144.928068,70.1385014 146.999954,69.7736232 148.135602,70.4354952 L160.183655,77.4077804 C161.319303,78.0710667 161.877934,79.3339979 161.507399,80.5728867 L154.76988,91.1840541 C153.710602,92.6831661 151.747614,93.1795702 150.609137,92.5162838 M168.287345,102.68196 L156.92945,96.0533397 C155.792388,95.3914676 154.214077,93.1908843 155.875829,90.8743319 L161.94299,81.3125429 C162.606276,80.3041779 164.678162,79.9378855 165.81381,80.6011718 L177.861862,87.5706284 C178.99751,88.2353291 179.556142,89.496846 179.187021,90.7385633 L172.448088,101.349731 C171.39871,102.855914 169.442793,103.343833 168.287345,102.68196 M160.780471,77.1447287 L149.421162,70.5146936 C148.284099,69.849993 146.705789,67.6522382 148.366126,65.3356859 L154.42763,55.7753111 C155.090917,54.7669462 157.162802,54.4006537 158.298451,55.0625258 L170.353574,62.0447107 C171.489222,62.7065828 172.047853,63.969514 171.677318,65.2084028 L164.9398,75.8195702 C163.88335,77.3101967 161.918947,77.808015 160.780471,77.1447287 M178.404937,87.3683898 L167.045628,80.7425975 C165.90998,80.0778969 164.331669,77.8787278 165.993421,75.565004 L172.061996,66.0003865 C172.726697,64.9906073 174.79434,64.6257291 175.932816,65.2876012 L187.979454,72.2613005 C189.115102,72.9231726 189.675148,74.1846895 189.304613,75.4249926 L182.567094,86.03616 C181.506402,87.5338578 179.541999,88.0330904 178.404937,87.3683898 M185.835441,113.018762 L174.477546,106.391556 C173.341898,105.729683 171.763588,103.5291 173.425339,101.212548 L179.4925,91.6507588 C180.155787,90.6423938 182.227673,90.2761014 183.363321,90.9379735 L195.411373,97.9116729 C196.547021,98.5735449 197.105652,99.8364761 196.735117,101.076779 L189.997598,111.687947 C188.936906,113.185644 186.973918,113.682048 185.835441,113.018762 M203.517892,123.184439 L192.159997,116.555818 C191.02152,115.893946 189.44321,113.693362 191.10779,111.37681 L197.173536,101.815021 C197.836823,100.806656 199.908709,100.440364 201.044357,101.10365 L213.092409,108.073107 C214.228057,108.737807 214.786688,109.999324 214.416153,111.241041 L207.67722,121.852209 C206.625013,123.349907 204.662025,123.840654 203.517892,123.184439 M196.009603,97.6472069 L184.651708,91.0214146 C183.514646,90.356714 181.93775,88.1575449 183.598087,85.8424069 L189.656763,76.2777893 C190.321463,75.2694244 192.393349,74.9031319 193.527583,75.5664183 L205.575635,82.5387034 C206.712697,83.2005755 207.269915,84.4649209 206.900794,85.7038097 L200.163275,96.3149771 C199.109654,97.8126749 197.145251,98.3119075 196.009603,97.6472069 M213.629827,107.872282 L202.271932,101.245076 C201.136284,100.581789 199.557973,98.3826203 201.219725,96.0674822 L207.285471,86.5028647 C207.951586,85.4944997 210.022058,85.1282073 211.15912,85.7900794 L223.204344,92.7637788 C224.34282,93.4256509 224.900038,94.688582 224.530917,95.9274708 L217.793398,106.540052 C216.732706,108.03775 214.766889,108.536983 213.629827,107.872282" id="Fill-41" fill="#49C4E9"></path><path d="M101.100256,170.028861 L89.7423609,163.40024 C88.6052986,162.738368 87.0255739,160.537784 88.6873255,158.221232 L94.7474151,148.659443 C95.4121157,147.651078 97.4825874,147.283371 98.6196497,147.948072 L110.666288,154.918943 C111.801936,155.582229 112.360567,156.843746 111.991446,158.085463 L105.253928,168.696631 C104.203135,170.194329 102.240147,170.690733 101.100256,170.028861 Z M118.791192,180.193123 L107.433297,173.564502 C106.29482,172.90263 104.71651,170.703461 106.379676,168.386909 L112.445422,158.82512 C113.110123,157.81534 115.182009,157.447634 116.316243,158.112334 L128.364295,165.083205 C129.499943,165.747906 130.058574,167.008009 129.689453,168.249726 L122.950521,178.862307 C121.892657,180.360005 119.928254,180.856409 118.791192,180.193123 Z M136.330802,190.531339 L124.971493,183.904132 C123.837259,183.240846 122.257535,181.040263 123.919286,178.725125 L129.977962,169.163336 C130.642662,168.153556 132.713134,167.78585 133.848782,168.45055 L145.896834,175.421421 C147.032482,176.086122 147.591114,177.346224 147.220578,178.587942 L140.48306,189.199109 C139.430853,190.696807 137.466451,191.193211 136.330802,190.531339 Z M154.017496,200.697015 L142.658187,194.068395 C141.521124,193.406523 139.942814,191.205939 141.603151,188.889387 L147.671726,179.327598 C148.335013,178.317819 150.406899,177.951526 151.542547,178.614813 L163.590599,185.585683 C164.726247,186.250384 165.284878,187.510487 164.915757,188.752204 L158.176824,199.364786 C157.121789,200.862483 155.154558,201.358888 154.017496,200.697015 Z M111.25179,154.57245 L99.8924807,147.943829 C98.7582469,147.281957 97.177108,145.081374 98.8402737,142.764822 L104.90602,133.203033 C105.57355,132.194668 107.641193,131.826961 108.779669,132.490247 L120.824893,139.461118 C121.963369,140.125819 122.520587,141.387336 122.150051,142.627639 L115.412533,153.24022 C114.353255,154.736504 112.387438,155.234322 111.25179,154.57245 Z M128.939897,164.735298 L117.582002,158.108092 C116.446354,157.44622 114.86663,155.245636 116.528381,152.930498 L122.594128,143.365881 C123.260243,142.35893 125.330714,141.991223 126.467777,142.655924 L138.514415,149.626795 C139.651477,150.290081 140.210108,151.551598 139.840987,152.793315 L133.102055,163.401654 C132.041362,164.900766 130.075545,165.398584 128.939897,164.735298 Z M121.424538,139.199481 L110.065229,132.57086 C108.92958,131.908988 107.349856,129.708404 109.013022,127.393266 L115.078768,117.830063 C115.744883,116.821698 117.813941,116.45682 118.952417,117.118692 L130.997641,124.090977 C132.136117,124.752849 132.693334,126.01578 132.322799,127.256083 L125.583866,137.867251 C124.526002,139.364949 122.560186,139.861353 121.424538,139.199481 Z M139.047589,149.424556 L127.68828,142.795935 C126.551218,142.134063 124.971493,139.93348 126.636073,137.616927 L132.70182,128.055138 C133.367935,127.045359 135.436992,126.679067 136.574055,127.342353 L148.620692,134.313224 C149.759169,134.977925 150.316386,136.238027 149.945851,137.479745 L143.206918,148.092326 C142.14764,149.590024 140.180409,150.086428 139.047589,149.424556 Z M146.478094,175.074928 L135.120199,168.446307 C133.983136,167.784435 132.403412,165.583852 134.066578,163.2673 L140.133739,153.705511 C140.798439,152.697146 142.868911,152.329439 144.005973,152.99414 L156.051197,159.963596 C157.189673,160.628297 157.748305,161.889814 157.376355,163.131531 L150.638837,173.742699 C149.579558,175.243225 147.613742,175.7368 146.478094,175.074928 Z M164.166201,185.239191 L152.808306,178.61057 C151.672658,177.948698 150.091519,175.748114 151.754685,173.432976 L157.820432,163.868359 C158.487961,162.861408 160.557018,162.493701 161.694081,163.158402 L173.739304,170.129273 C174.877781,170.793973 175.436412,172.054076 175.064463,173.295793 L168.326944,183.906961 C167.267666,185.403244 165.301849,185.902477 164.166201,185.239191 Z M156.650842,159.701959 L145.292947,153.074752 C144.155884,152.411466 142.57616,150.210883 144.239325,147.895745 L150.305072,138.332541 C150.971187,137.324176 153.041659,136.959298 154.178721,137.62117 L166.223945,144.593455 C167.362421,145.255327 167.921053,146.518259 167.549103,147.758562 L160.81017,158.369729 C159.752306,159.867427 157.78649,160.365245 156.650842,159.701959 Z M174.272479,169.927034 L162.914584,163.298413 C161.777522,162.636541 160.199211,160.435958 161.862377,158.12082 L167.928124,148.557617 C168.592824,147.549252 170.66471,147.182959 171.798944,147.844831 L183.846996,154.817116 C184.984059,155.480403 185.54269,156.74192 185.170741,157.983637 L178.434636,168.594804 C177.373944,170.092502 175.410956,170.588906 174.272479,169.927034 Z M130.672362,123.668114 L119.314467,117.040908 C118.178819,116.376207 116.59768,114.178452 118.260846,111.863314 L124.328007,102.298697 C124.994121,101.290332 127.063179,100.924039 128.201655,101.585912 L140.246879,108.559611 C141.383941,109.221483 141.942573,110.484414 141.570623,111.723303 L134.833105,122.335885 C133.773827,123.840654 131.80801,124.331401 130.672362,123.668114 Z M148.360469,133.815406 L137.002574,127.186785 C135.866926,126.524913 134.285787,124.324329 135.950367,122.007777 L142.016114,112.445988 C142.682229,111.437623 144.751286,111.069916 145.888349,111.733203 L157.934987,118.704074 C159.072049,119.368774 159.63068,120.630291 159.258731,121.872008 L152.521212,132.483176 C151.461934,133.980874 149.496117,134.477278 148.360469,133.815406 Z M140.84511,108.00098 L129.487215,101.372359 C128.348738,100.710487 126.770428,98.5099034 128.433594,96.1933511 L134.49934,86.6315621 C135.164041,85.6231971 137.235927,85.2554904 138.371575,85.9187767 L150.419627,92.8910619 C151.555275,93.5543482 152.112492,94.8158651 151.743371,96.0575824 L145.004438,106.66875 C143.946574,108.165033 141.983586,108.662852 140.84511,108.00098 Z M158.469576,118.223226 L147.111681,111.597434 C145.974618,110.932734 144.396308,108.734979 146.058059,106.418426 L152.116735,96.8538089 C152.780021,95.8468582 154.851907,95.4805657 155.988969,96.1438521 L168.035607,103.114723 C169.171255,103.776595 169.729887,105.039526 169.360766,106.281244 L162.621833,116.890997 C161.569626,118.388694 159.605224,118.887927 158.469576,118.223226 Z M166.122118,144.27949 L154.764223,137.653698 C153.625747,136.990412 152.047436,134.791243 153.709188,132.47469 L159.776349,122.911487 C160.441049,121.901708 162.512935,121.53683 163.648583,122.198702 L175.695221,129.170987 C176.832284,129.834273 177.389501,131.097204 177.02038,132.336093 L170.282861,142.948675 C169.223583,144.439301 167.260595,144.944191 166.122118,144.27949 Z M183.856896,154.370211 L172.497587,147.743005 C171.363353,147.078304 169.783629,144.880549 171.44538,142.565411 L177.511127,133.000794 C178.177242,131.991015 180.247713,131.626136 181.384776,132.288008 L193.429999,139.261708 C194.568476,139.92358 195.125693,141.186511 194.757986,142.4254 L188.019053,153.037982 C186.962604,154.535679 184.992544,155.027841 183.856896,154.370211 Z M176.071413,128.503458 L164.712104,121.874837 C163.575042,121.212965 161.996732,119.012382 163.658483,116.697244 L169.725644,107.13404 C170.390345,106.125675 172.462231,105.757969 173.597879,106.422669 L185.644517,113.39354 C186.781579,114.056826 187.34021,115.318343 186.969675,116.560061 L180.230742,127.171228 C179.172878,128.667512 177.208476,129.16533 176.071413,128.503458 Z M193.700122,138.725705 L182.340813,132.099912 C181.206579,131.436626 179.626855,129.237457 181.288606,126.920905 L187.345867,117.356287 C188.010568,116.349336 190.082454,115.983044 191.219516,116.64633 L203.266154,123.617201 C204.401802,124.279073 204.960433,125.542004 204.591312,126.783722 L197.85238,137.393475 C196.79593,138.891173 194.831528,139.390405 193.700122,138.725705 Z M150.609137,92.5162838 L139.251242,85.8890773 C138.112766,85.2272052 136.534455,83.0252077 138.196207,80.7100696 L144.264782,71.1482806 C144.928068,70.1385014 146.999954,69.7736232 148.135602,70.4354952 L160.183655,77.4077804 C161.319303,78.0710667 161.877934,79.3339979 161.507399,80.5728867 L154.76988,91.1840541 C153.710602,92.6831661 151.747614,93.1795702 150.609137,92.5162838 Z M168.287345,102.68196 L156.92945,96.0533397 C155.792388,95.3914676 154.214077,93.1908843 155.875829,90.8743319 L161.94299,81.3125429 C162.606276,80.3041779 164.678162,79.9378855 165.81381,80.6011718 L177.861862,87.5706284 C178.99751,88.2353291 179.556142,89.496846 179.187021,90.7385633 L172.448088,101.349731 C171.39871,102.855914 169.442793,103.343833 168.287345,102.68196 Z M160.780471,77.1447287 L149.421162,70.5146936 C148.284099,69.849993 146.705789,67.6522382 148.366126,65.3356859 L154.42763,55.7753111 C155.090917,54.7669462 157.162802,54.4006537 158.298451,55.0625258 L170.353574,62.0447107 C171.489222,62.7065828 172.047853,63.969514 171.677318,65.2084028 L164.9398,75.8195702 C163.88335,77.3101967 161.918947,77.808015 160.780471,77.1447287 Z M178.404937,87.3683898 L167.045628,80.7425975 C165.90998,80.0778969 164.331669,77.8787278 165.993421,75.565004 L172.061996,66.0003865 C172.726697,64.9906073 174.79434,64.6257291 175.932816,65.2876012 L187.979454,72.2613005 C189.115102,72.9231726 189.675148,74.1846895 189.304613,75.4249926 L182.567094,86.03616 C181.506402,87.5338578 179.541999,88.0330904 178.404937,87.3683898 Z M185.835441,113.018762 L174.477546,106.391556 C173.341898,105.729683 171.763588,103.5291 173.425339,101.212548 L179.4925,91.6507588 C180.155787,90.6423938 182.227673,90.2761014 183.363321,90.9379735 L195.411373,97.9116729 C196.547021,98.5735449 197.105652,99.8364761 196.735117,101.076779 L189.997598,111.687947 C188.936906,113.185644 186.973918,113.682048 185.835441,113.018762 Z M203.517892,123.184439 L192.159997,116.555818 C191.02152,115.893946 189.44321,113.693362 191.10779,111.37681 L197.173536,101.815021 C197.836823,100.806656 199.908709,100.440364 201.044357,101.10365 L213.092409,108.073107 C214.228057,108.737807 214.786688,109.999324 214.416153,111.241041 L207.67722,121.852209 C206.625013,123.349907 204.662025,123.840654 203.517892,123.184439 Z M196.009603,97.6472069 L184.651708,91.0214146 C183.514646,90.356714 181.93775,88.1575449 183.598087,85.8424069 L189.656763,76.2777893 C190.321463,75.2694244 192.393349,74.9031319 193.527583,75.5664183 L205.575635,82.5387034 C206.712697,83.2005755 207.269915,84.4649209 206.900794,85.7038097 L200.163275,96.3149771 C199.109654,97.8126749 197.145251,98.3119075 196.009603,97.6472069 Z M213.629827,107.872282 L202.271932,101.245076 C201.136284,100.581789 199.557973,98.3826203 201.219725,96.0674822 L207.285471,86.5028647 C207.951586,85.4944997 210.022058,85.1282073 211.15912,85.7900794 L223.204344,92.7637788 C224.34282,93.4256509 224.900038,94.688582 224.530917,95.9274708 L217.793398,106.540052 C216.732706,108.03775 214.766889,108.536983 213.629827,107.872282 Z" id="Stroke-43" stroke="#FFFFFF" stroke-width="3"></path><polygon id="Fill-45" fill="#EAEAEA" points="155.326107 52.5073884 155.205896 52.91328 225.589205 93.9154079 225.651432 93.6466992"></polygon><polygon id="Fill-47" fill="#515151" points="229.855593 92.7018343 232.405497 96.2035337 162.879228 211.761028 160.310938 208.279128"></polygon><polygon id="Fill-49" fill="#F9FAFC" points="160.329889 208.2565 162.878379 211.761028 86.4519515 167.185073 82.9544948 163.44295"></polygon><g id="Group-53" transform="translate(183.853361, 90.512424)"><mask id="mask-15" fill="white"><use xlink:href="#path-14"></use></mask><g id="Clip-52"></g><polygon id="Fill-51" fill="#E2E2E2" mask="url(#mask-15)" points="0.52780057 175.709364 0.517900774 175.672593 29.9627236 149.742198 31.9073264 148.607964 31.910155 285.680544 162.909917 210.088528 162.908503 72.1688082 167.738189 69.3487805 193.671413 63.5404285 110.193502 0.430641141"></polygon></g><polygon id="Fill-54" fill="#DBE8EE" points="72.5540517 0.879384766 147.619965 44.4865734 78.072481 160.056796 0.714058167 115.219204"></polygon><polygon id="Fill-56" fill="#FFFFFF" points="73.5823577 4.44203862 143.80727 45.6181201 74.7915471 154.733675 4.54683503 113.281814"></polygon><path d="M18.8642033,121.805963 L7.50630843,115.178756 C6.37066037,114.51547 4.79093572,112.317715 6.45268725,110.001163 L12.5184339,100.436545 C13.1845488,99.4281802 15.2550205,99.0618878 16.3920828,99.7251741 L28.4344779,106.707359 C29.5715402,107.369231 30.1301716,108.632162 29.7610506,109.872465 L23.0221178,120.483633 C21.9656681,121.971431 19.9998514,122.470663 18.8642033,121.805963 M36.5523109,131.970225 L25.194416,125.341604 C24.0587679,124.679732 22.4804575,122.480563 24.1407948,120.164011 L30.2079557,110.602222 C30.8740706,109.592443 32.943128,109.22615 34.0801903,109.889436 L46.1282425,116.861722 C47.2638905,117.525008 47.8225219,118.787939 47.4519866,120.026828 L40.7144681,130.63941 C39.6537756,132.135693 37.6907875,132.633511 36.5523109,131.970225 M54.0905072,142.308441 L42.7311981,135.682649 C41.5969642,135.017948 40.0158253,132.820193 41.6789911,130.503641 L47.7447378,120.939023 C48.4122669,119.930658 50.4813243,119.56578 51.6183866,120.227652 L63.6636103,127.199937 C64.8020869,127.86181 65.3607182,129.124741 64.9887687,130.365044 L58.2512502,140.976211 C57.191972,142.473909 55.2261553,142.973142 54.0905072,142.308441 M71.7786148,152.474118 L60.4207198,145.846911 C59.2850718,145.18221 57.7053471,142.983041 59.3670987,140.667903 L65.4328453,131.1047 C66.0989602,130.094921 68.1694319,129.730043 69.3064942,130.391915 L81.3531321,137.3642 C82.4901944,138.027486 83.0488258,139.290417 82.6797048,140.529306 L75.940772,151.141888 C74.8800795,152.639586 72.9142628,153.13599 71.7786148,152.474118 M29.0129088,106.349552 L17.6550139,99.7209313 C16.5179516,99.0590592 14.9396412,96.8584759 16.6013928,94.5419236 L22.6685537,84.9801346 C23.3332543,83.9717696 25.403726,83.6054772 26.539374,84.2673493 L38.5874262,91.2410487 C39.7230742,91.9029208 40.2817056,93.1658519 39.9111704,94.4047407 L33.1736518,105.015908 C32.1129594,106.513606 30.1485569,107.011424 29.0129088,106.349552 M46.7024306,116.513814 L35.3431215,109.885194 C34.2060592,109.223322 32.6263345,107.022738 34.2909145,104.7076 L40.3566612,95.1443969 C41.0227761,94.136032 43.0918335,93.7697395 44.2288958,94.4330258 L56.2755337,101.405311 C57.412596,102.067183 57.9712274,103.330114 57.6006921,104.570417 L50.8617594,115.181585 C49.8024812,116.679282 47.8380787,117.175687 46.7024306,116.513814 M39.1856567,90.9765827 L27.8277618,84.3507904 C26.6906995,83.6860898 25.1109748,81.488335 26.7741406,79.1717827 L32.8413015,69.6071651 C33.5045879,68.5988002 35.5764738,68.233922 36.7121219,68.8957941 L48.760174,75.8680792 C49.8958221,76.5299513 50.4530392,77.7928825 50.0839182,79.0331855 L43.3463997,89.6443529 C42.2857072,91.1420507 40.3213048,91.6412833 39.1856567,90.9765827 M56.8072942,101.201658 L45.447985,94.5744515 C44.3109227,93.9097509 42.7311981,91.7119961 44.3929496,89.3954438 L50.4615247,79.8322405 C51.1262253,78.8224613 53.196697,78.4575831 54.3337594,79.1194552 L66.3803972,86.0931546 C67.5160453,86.7550267 68.0746767,88.0179578 67.7055557,89.2568466 L60.9680372,99.8694283 C59.9031019,101.367126 57.9443565,101.864944 56.8072942,101.201658 M64.2377985,126.85203 L52.8799036,120.22341 C51.7428412,119.561537 50.1631166,117.360954 51.8262824,115.04723 L57.8934433,105.482613 C58.5567296,104.474248 60.6286156,104.107955 61.7642636,104.771242 L73.8123158,111.743527 C74.9479638,112.405399 75.505181,113.66833 75.13606,114.908633 L68.3985414,125.519801 C67.3392632,127.017498 65.376275,127.513902 64.2377985,126.85203 M81.9273203,137.016293 L70.5694253,130.387672 C69.432363,129.7258 67.8540526,127.525216 69.5158042,125.210078 L75.5829651,115.648289 C76.2476657,114.63851 78.3181374,114.272218 79.4537854,114.935504 L91.4975948,121.916275 C92.6346571,122.578147 93.1947027,123.841078 92.8227533,125.079967 L86.0838205,135.692548 C85.0273708,137.181761 83.0643826,137.679579 81.9273203,137.016293 M74.4105463,111.479061 L63.0526514,104.853269 C61.9141748,104.188568 60.3358645,101.990813 61.9990302,99.6742609 L68.0647769,90.1096434 C68.7294775,89.1012784 70.8013634,88.7364002 71.9370115,89.3982723 L83.9836494,96.3705574 C85.1207117,97.0324295 85.6779288,98.2953607 85.3088078,99.537078 L78.5712893,110.146831 C77.5120111,111.644529 75.5490229,112.143761 74.4105463,111.479061 M92.0335981,121.704136 L80.6757032,115.078344 C79.5372266,114.413643 77.9589162,112.214474 79.6192535,109.899336 L85.6878286,100.334719 C86.3525292,99.3263537 88.4244152,98.9600613 89.558649,99.6219334 L101.606701,106.595633 C102.742349,107.257505 103.300981,108.520436 102.93186,109.760739 L96.1929268,120.371907 C95.1322343,121.869604 93.1706604,122.367423 92.0335981,121.704136 M48.4320665,75.4466307 L37.0741716,68.81801 C35.9371093,68.1561379 34.3587989,65.9555546 36.0205504,63.6404165 L42.0877113,54.0772132 C42.7509976,53.0688482 44.8228836,52.7011415 45.9585317,53.3644279 L58.0065838,60.336713 C59.1422319,60.9999994 59.7008632,62.2615163 59.330328,63.5032336 L52.5928095,74.114401 C51.5335313,75.6092702 49.5705431,76.1085028 48.4320665,75.4466307 M66.1230025,85.5925077 L54.7636934,78.9638869 C53.626631,78.3020148 52.0483207,76.1014315 53.7114864,73.7848792 L59.7772331,64.2230902 C60.4419337,63.2147252 62.5124054,62.8484328 63.6494677,63.5103049 L75.6890343,70.4840043 C76.8246824,71.1458763 77.3818995,72.4088075 77.0127785,73.6491106 L70.27526,84.260278 C69.2216388,85.7579757 67.2586506,86.2543798 66.1230025,85.5925077 M58.6076429,59.7780816 L47.2483337,53.1494609 C46.1126856,52.4875888 44.5343752,50.2870055 46.1961268,47.9704531 L52.2618734,38.4086641 C52.9279883,37.4002992 54.9970457,37.0340067 56.1355223,37.6958788 L68.1807459,44.6695782 C69.3178082,45.3314503 69.8764396,46.5943814 69.5073186,47.8346845 L62.7683858,58.4458519 C61.7076934,59.9435497 59.7432909,60.4399537 58.6076429,59.7780816 M76.2306946,70.003157 L64.8713854,63.3745362 C63.7357374,62.7112499 62.1545985,60.5120808 63.8191785,58.1955285 L69.8849251,48.6337395 C70.5496258,47.6239603 72.6200974,47.259082 73.7571598,47.9209541 L85.8037977,54.891825 C86.94086,55.5565256 87.4994913,56.8166283 87.1275419,58.0583456 L80.3900233,68.669513 C79.3307451,70.1672108 77.3649284,70.6650291 76.2306946,70.003157 M83.8846514,96.059421 L72.5253423,89.4308002 C71.3896942,88.7689281 69.8113838,86.5683448 71.4731353,84.2517924 L77.538882,74.6900034 C78.2049968,73.6816385 80.2740543,73.3139317 81.4125309,73.9772181 L93.4577545,80.948089 C94.5948168,81.6127896 95.1534482,82.8743065 94.7843272,84.1160238 L88.0453944,94.7271912 C86.9847019,96.224889 85.0202995,96.7212931 83.8846514,96.059421 M101.618015,106.148728 L90.2601203,99.5201069 C89.1244722,98.8582348 87.5447476,96.6576515 89.2064991,94.3425134 L95.27366,84.7793102 C95.9397748,83.7709452 98.0088323,83.4032385 99.1473089,84.0665248 L111.192532,91.03881 C112.329595,91.7020963 112.888226,92.9636132 112.516277,94.2053305 L105.778758,104.816498 C104.720894,106.322681 102.753663,106.8106 101.618015,106.148728 M93.8325325,80.2805599 L82.4746376,73.6519391 C81.3389895,72.990067 79.7606791,70.7894837 81.4210164,68.4743456 L87.4881773,58.9111423 C88.1542922,57.9027774 90.2233496,57.5364849 91.3618262,58.198357 L103.411293,65.1720564 C104.548355,65.8339285 105.106986,67.0968596 104.737865,68.3371627 L97.9989325,78.9483301 C96.9354115,80.4460279 94.9695948,80.942432 93.8325325,80.2805599 M111.455584,90.5056352 L100.097689,83.8770144 C98.9620412,83.2137281 97.3809023,81.014559 99.0440681,78.6980067 L105.109815,69.1362177 C105.777344,68.1264385 107.846401,67.7615603 108.984878,68.4234324 L121.030102,75.3943032 C122.167164,76.0590038 122.725795,77.3191065 122.353846,78.5608238 L115.616327,89.1734055 C114.557049,90.6711032 112.591232,91.1675073 111.455584,90.5056352 M68.3730848,44.2933859 L57.0151899,37.6675937 C55.8795418,37.0043073 54.2998172,34.8051383 55.9615687,32.4885859 L62.0202441,22.9253827 C62.686359,21.9184319 64.7554164,21.5507252 65.893893,22.2125973 L77.9391166,29.1848824 C79.0775932,29.8481688 79.6348103,31.1111 79.2656893,32.3528173 L72.5281708,42.9611562 C71.4731353,44.4602682 69.5073186,44.9580865 68.3730848,44.2933859 M86.0597781,54.4590625 L74.7004689,47.831856 C73.5648209,47.1685696 71.9865105,44.9694006 73.648262,42.6542625 L79.7140087,33.089645 C80.3801235,32.08128 82.4520095,31.7149875 83.5876575,32.3768596 L95.6328812,39.350559 C96.7713577,40.0124311 97.3285748,41.2753623 96.9594539,42.5156653 L90.2219353,53.1268328 C89.1640714,54.6245305 87.1968404,55.1223488 86.0597781,54.4590625 M78.5444184,28.9317305 L67.1851093,22.3031097 C66.0494612,21.6412376 64.4697366,19.4406543 66.1314881,17.124102 L72.1944062,7.562313 C72.8605211,6.55394803 74.9309928,6.1862413 76.0680551,6.84952766 L88.1132787,13.8218128 C89.2517553,14.4850991 89.8103867,15.7452018 89.4398514,16.9883334 L82.7023329,27.5995008 C81.6458832,29.088713 79.6786522,29.5851171 78.5444184,28.9317305 M96.1660559,39.1483203 L84.808161,32.5196996 C83.6725129,31.8578275 82.0927883,29.6572442 83.7545398,27.3406918 L89.8217007,17.7774886 C90.4878156,16.7705378 92.556873,16.4028311 93.6953496,17.0661175 L105.740573,24.0384026 C106.877636,24.701689 107.436267,25.9617916 107.064317,27.2049232 L100.326799,37.8160906 C99.2675207,39.3109598 97.301704,39.8101924 96.1660559,39.1483203 M103.603631,64.7958641 L92.2443223,58.1700719 C91.1086742,57.5067855 89.5289496,55.3076165 91.1921154,52.9910641 L97.2507907,43.4278609 C97.9154913,42.4209102 99.985963,42.0532034 101.12444,42.7150755 L113.169663,49.6873607 C114.306726,50.350647 114.865357,51.6135782 114.493407,52.8552955 L107.755889,63.4650486 C106.698025,64.9627464 104.733623,65.4605647 103.603631,64.7958641 M121.286082,74.9615407 L109.928187,68.3343342 C108.791125,67.6710478 107.212814,65.4718788 108.874566,63.1567407 L114.940313,53.5921232 C115.606427,52.5837582 117.676899,52.2174658 118.813961,52.8807521 L130.859185,59.8530372 C131.997662,60.5149093 132.556293,61.7778405 132.185758,63.0181436 L125.448239,73.629311 C124.394618,75.1354943 122.42173,75.6262413 121.286082,74.9615407 M113.769308,49.4257232 L102.411413,42.7985167 C101.275765,42.1366446 99.6946262,39.934647 101.359206,37.6195089 L107.424953,28.0577199 C108.091068,27.049355 110.160125,26.680234 111.298602,27.3449346 L123.339583,34.3214625 C124.478059,34.9861631 125.035276,36.2462658 124.664741,37.4879831 L117.925808,48.1005647 C116.870773,49.5911912 114.90637,50.0890095 113.769308,49.4257232 M131.39236,59.6507985 L120.034465,53.0221778 C118.898817,52.3603057 117.317678,50.1597224 118.982258,47.8445843 L125.048005,38.2799668 C125.714119,37.2730161 127.783177,36.9053093 128.920239,37.5685957 L140.966877,44.5408808 C142.103939,45.2041672 142.662571,46.4656841 142.290621,47.7074014 L135.553103,58.3185688 C134.493825,59.8148523 132.529422,60.3112564 131.39236,59.6507985" id="Fill-58" fill="#49C4E9"></path><path d="M18.8642033,121.805963 L7.50630843,115.178756 C6.37066037,114.51547 4.79093572,112.317715 6.45268725,110.001163 L12.5184339,100.436545 C13.1845488,99.4281802 15.2550205,99.0618878 16.3920828,99.7251741 L28.4344779,106.707359 C29.5715402,107.369231 30.1301716,108.632162 29.7610506,109.872465 L23.0221178,120.483633 C21.9656681,121.971431 19.9998514,122.470663 18.8642033,121.805963 Z M36.5523109,131.970225 L25.194416,125.341604 C24.0587679,124.679732 22.4804575,122.480563 24.1407948,120.164011 L30.2079557,110.602222 C30.8740706,109.592443 32.943128,109.22615 34.0801903,109.889436 L46.1282425,116.861722 C47.2638905,117.525008 47.8225219,118.787939 47.4519866,120.026828 L40.7144681,130.63941 C39.6537756,132.135693 37.6907875,132.633511 36.5523109,131.970225 Z M54.0905072,142.308441 L42.7311981,135.682649 C41.5969642,135.017948 40.0158253,132.820193 41.6789911,130.503641 L47.7447378,120.939023 C48.4122669,119.930658 50.4813243,119.56578 51.6183866,120.227652 L63.6636103,127.199937 C64.8020869,127.86181 65.3607182,129.124741 64.9887687,130.365044 L58.2512502,140.976211 C57.191972,142.473909 55.2261553,142.973142 54.0905072,142.308441 Z M71.7786148,152.474118 L60.4207198,145.846911 C59.2850718,145.18221 57.7053471,142.983041 59.3670987,140.667903 L65.4328453,131.1047 C66.0989602,130.094921 68.1694319,129.730043 69.3064942,130.391915 L81.3531321,137.3642 C82.4901944,138.027486 83.0488258,139.290417 82.6797048,140.529306 L75.940772,151.141888 C74.8800795,152.639586 72.9142628,153.13599 71.7786148,152.474118 Z M29.0129088,106.349552 L17.6550139,99.7209313 C16.5179516,99.0590592 14.9396412,96.8584759 16.6013928,94.5419236 L22.6685537,84.9801346 C23.3332543,83.9717696 25.403726,83.6054772 26.539374,84.2673493 L38.5874262,91.2410487 C39.7230742,91.9029208 40.2817056,93.1658519 39.9111704,94.4047407 L33.1736518,105.015908 C32.1129594,106.513606 30.1485569,107.011424 29.0129088,106.349552 Z M46.7024306,116.513814 L35.3431215,109.885194 C34.2060592,109.223322 32.6263345,107.022738 34.2909145,104.7076 L40.3566612,95.1443969 C41.0227761,94.136032 43.0918335,93.7697395 44.2288958,94.4330258 L56.2755337,101.405311 C57.412596,102.067183 57.9712274,103.330114 57.6006921,104.570417 L50.8617594,115.181585 C49.8024812,116.679282 47.8380787,117.175687 46.7024306,116.513814 Z M39.1856567,90.9765827 L27.8277618,84.3507904 C26.6906995,83.6860898 25.1109748,81.488335 26.7741406,79.1717827 L32.8413015,69.6071651 C33.5045879,68.5988002 35.5764738,68.233922 36.7121219,68.8957941 L48.760174,75.8680792 C49.8958221,76.5299513 50.4530392,77.7928825 50.0839182,79.0331855 L43.3463997,89.6443529 C42.2857072,91.1420507 40.3213048,91.6412833 39.1856567,90.9765827 Z M56.8072942,101.201658 L45.447985,94.5744515 C44.3109227,93.9097509 42.7311981,91.7119961 44.3929496,89.3954438 L50.4615247,79.8322405 C51.1262253,78.8224613 53.196697,78.4575831 54.3337594,79.1194552 L66.3803972,86.0931546 C67.5160453,86.7550267 68.0746767,88.0179578 67.7055557,89.2568466 L60.9680372,99.8694283 C59.9031019,101.367126 57.9443565,101.864944 56.8072942,101.201658 Z M64.2377985,126.85203 L52.8799036,120.22341 C51.7428412,119.561537 50.1631166,117.360954 51.8262824,115.04723 L57.8934433,105.482613 C58.5567296,104.474248 60.6286156,104.107955 61.7642636,104.771242 L73.8123158,111.743527 C74.9479638,112.405399 75.505181,113.66833 75.13606,114.908633 L68.3985414,125.519801 C67.3392632,127.017498 65.376275,127.513902 64.2377985,126.85203 Z M81.9273203,137.016293 L70.5694253,130.387672 C69.432363,129.7258 67.8540526,127.525216 69.5158042,125.210078 L75.5829651,115.648289 C76.2476657,114.63851 78.3181374,114.272218 79.4537854,114.935504 L91.4975948,121.916275 C92.6346571,122.578147 93.1947027,123.841078 92.8227533,125.079967 L86.0838205,135.692548 C85.0273708,137.181761 83.0643826,137.679579 81.9273203,137.016293 Z M74.4105463,111.479061 L63.0526514,104.853269 C61.9141748,104.188568 60.3358645,101.990813 61.9990302,99.6742609 L68.0647769,90.1096434 C68.7294775,89.1012784 70.8013634,88.7364002 71.9370115,89.3982723 L83.9836494,96.3705574 C85.1207117,97.0324295 85.6779288,98.2953607 85.3088078,99.537078 L78.5712893,110.146831 C77.5120111,111.644529 75.5490229,112.143761 74.4105463,111.479061 Z M92.0335981,121.704136 L80.6757032,115.078344 C79.5372266,114.413643 77.9589162,112.214474 79.6192535,109.899336 L85.6878286,100.334719 C86.3525292,99.3263537 88.4244152,98.9600613 89.558649,99.6219334 L101.606701,106.595633 C102.742349,107.257505 103.300981,108.520436 102.93186,109.760739 L96.1929268,120.371907 C95.1322343,121.869604 93.1706604,122.367423 92.0335981,121.704136 Z M48.4320665,75.4466307 L37.0741716,68.81801 C35.9371093,68.1561379 34.3587989,65.9555546 36.0205504,63.6404165 L42.0877113,54.0772132 C42.7509976,53.0688482 44.8228836,52.7011415 45.9585317,53.3644279 L58.0065838,60.336713 C59.1422319,60.9999994 59.7008632,62.2615163 59.330328,63.5032336 L52.5928095,74.114401 C51.5335313,75.6092702 49.5705431,76.1085028 48.4320665,75.4466307 Z M66.1230025,85.5925077 L54.7636934,78.9638869 C53.626631,78.3020148 52.0483207,76.1014315 53.7114864,73.7848792 L59.7772331,64.2230902 C60.4419337,63.2147252 62.5124054,62.8484328 63.6494677,63.5103049 L75.6890343,70.4840043 C76.8246824,71.1458763 77.3818995,72.4088075 77.0127785,73.6491106 L70.27526,84.260278 C69.2216388,85.7579757 67.2586506,86.2543798 66.1230025,85.5925077 Z M58.6076429,59.7780816 L47.2483337,53.1494609 C46.1126856,52.4875888 44.5343752,50.2870055 46.1961268,47.9704531 L52.2618734,38.4086641 C52.9279883,37.4002992 54.9970457,37.0340067 56.1355223,37.6958788 L68.1807459,44.6695782 C69.3178082,45.3314503 69.8764396,46.5943814 69.5073186,47.8346845 L62.7683858,58.4458519 C61.7076934,59.9435497 59.7432909,60.4399537 58.6076429,59.7780816 Z M76.2306946,70.003157 L64.8713854,63.3745362 C63.7357374,62.7112499 62.1545985,60.5120808 63.8191785,58.1955285 L69.8849251,48.6337395 C70.5496258,47.6239603 72.6200974,47.259082 73.7571598,47.9209541 L85.8037977,54.891825 C86.94086,55.5565256 87.4994913,56.8166283 87.1275419,58.0583456 L80.3900233,68.669513 C79.3307451,70.1672108 77.3649284,70.6650291 76.2306946,70.003157 Z M83.8846514,96.059421 L72.5253423,89.4308002 C71.3896942,88.7689281 69.8113838,86.5683448 71.4731353,84.2517924 L77.538882,74.6900034 C78.2049968,73.6816385 80.2740543,73.3139317 81.4125309,73.9772181 L93.4577545,80.948089 C94.5948168,81.6127896 95.1534482,82.8743065 94.7843272,84.1160238 L88.0453944,94.7271912 C86.9847019,96.224889 85.0202995,96.7212931 83.8846514,96.059421 Z M101.618015,106.148728 L90.2601203,99.5201069 C89.1244722,98.8582348 87.5447476,96.6576515 89.2064991,94.3425134 L95.27366,84.7793102 C95.9397748,83.7709452 98.0088323,83.4032385 99.1473089,84.0665248 L111.192532,91.03881 C112.329595,91.7020963 112.888226,92.9636132 112.516277,94.2053305 L105.778758,104.816498 C104.720894,106.322681 102.753663,106.8106 101.618015,106.148728 Z M93.8325325,80.2805599 L82.4746376,73.6519391 C81.3389895,72.990067 79.7606791,70.7894837 81.4210164,68.4743456 L87.4881773,58.9111423 C88.1542922,57.9027774 90.2233496,57.5364849 91.3618262,58.198357 L103.411293,65.1720564 C104.548355,65.8339285 105.106986,67.0968596 104.737865,68.3371627 L97.9989325,78.9483301 C96.9354115,80.4460279 94.9695948,80.942432 93.8325325,80.2805599 Z M111.455584,90.5056352 L100.097689,83.8770144 C98.9620412,83.2137281 97.3809023,81.014559 99.0440681,78.6980067 L105.109815,69.1362177 C105.777344,68.1264385 107.846401,67.7615603 108.984878,68.4234324 L121.030102,75.3943032 C122.167164,76.0590038 122.725795,77.3191065 122.353846,78.5608238 L115.616327,89.1734055 C114.557049,90.6711032 112.591232,91.1675073 111.455584,90.5056352 Z M68.3730848,44.2933859 L57.0151899,37.6675937 C55.8795418,37.0043073 54.2998172,34.8051383 55.9615687,32.4885859 L62.0202441,22.9253827 C62.686359,21.9184319 64.7554164,21.5507252 65.893893,22.2125973 L77.9391166,29.1848824 C79.0775932,29.8481688 79.6348103,31.1111 79.2656893,32.3528173 L72.5281708,42.9611562 C71.4731353,44.4602682 69.5073186,44.9580865 68.3730848,44.2933859 Z M86.0597781,54.4590625 L74.7004689,47.831856 C73.5648209,47.1685696 71.9865105,44.9694006 73.648262,42.6542625 L79.7140087,33.089645 C80.3801235,32.08128 82.4520095,31.7149875 83.5876575,32.3768596 L95.6328812,39.350559 C96.7713577,40.0124311 97.3285748,41.2753623 96.9594539,42.5156653 L90.2219353,53.1268328 C89.1640714,54.6245305 87.1968404,55.1223488 86.0597781,54.4590625 Z M78.5444184,28.9317305 L67.1851093,22.3031097 C66.0494612,21.6412376 64.4697366,19.4406543 66.1314881,17.124102 L72.1944062,7.562313 C72.8605211,6.55394803 74.9309928,6.1862413 76.0680551,6.84952766 L88.1132787,13.8218128 C89.2517553,14.4850991 89.8103867,15.7452018 89.4398514,16.9883334 L82.7023329,27.5995008 C81.6458832,29.088713 79.6786522,29.5851171 78.5444184,28.9317305 Z M96.1660559,39.1483203 L84.808161,32.5196996 C83.6725129,31.8578275 82.0927883,29.6572442 83.7545398,27.3406918 L89.8217007,17.7774886 C90.4878156,16.7705378 92.556873,16.4028311 93.6953496,17.0661175 L105.740573,24.0384026 C106.877636,24.701689 107.436267,25.9617916 107.064317,27.2049232 L100.326799,37.8160906 C99.2675207,39.3109598 97.301704,39.8101924 96.1660559,39.1483203 Z M103.603631,64.7958641 L92.2443223,58.1700719 C91.1086742,57.5067855 89.5289496,55.3076165 91.1921154,52.9910641 L97.2507907,43.4278609 C97.9154913,42.4209102 99.985963,42.0532034 101.12444,42.7150755 L113.169663,49.6873607 C114.306726,50.350647 114.865357,51.6135782 114.493407,52.8552955 L107.755889,63.4650486 C106.698025,64.9627464 104.733623,65.4605647 103.603631,64.7958641 Z M121.286082,74.9615407 L109.928187,68.3343342 C108.791125,67.6710478 107.212814,65.4718788 108.874566,63.1567407 L114.940313,53.5921232 C115.606427,52.5837582 117.676899,52.2174658 118.813961,52.8807521 L130.859185,59.8530372 C131.997662,60.5149093 132.556293,61.7778405 132.185758,63.0181436 L125.448239,73.629311 C124.394618,75.1354943 122.42173,75.6262413 121.286082,74.9615407 Z M113.769308,49.4257232 L102.411413,42.7985167 C101.275765,42.1366446 99.6946262,39.934647 101.359206,37.6195089 L107.424953,28.0577199 C108.091068,27.049355 110.160125,26.680234 111.298602,27.3449346 L123.339583,34.3214625 C124.478059,34.9861631 125.035276,36.2462658 124.664741,37.4879831 L117.925808,48.1005647 C116.870773,49.5911912 114.90637,50.0890095 113.769308,49.4257232 Z M131.39236,59.6507985 L120.034465,53.0221778 C118.898817,52.3603057 117.317678,50.1597224 118.982258,47.8445843 L125.048005,38.2799668 C125.714119,37.2730161 127.783177,36.9053093 128.920239,37.5685957 L140.966877,44.5408808 C142.103939,45.2041672 142.662571,46.4656841 142.290621,47.7074014 L135.553103,58.3185688 C134.493825,59.8148523 132.529422,60.3112564 131.39236,59.6507985 Z" id="Stroke-60" stroke="#FFFFFF" stroke-width="3"></path><polygon id="Fill-62" fill="#FFFFFF" points="73.455216 4.08847446 73.086095 4.28364187 143.807412 45.6181201 144.145419 45.4201242"></polygon><polygon id="Fill-64" fill="#EAEAEA" points="73.0858122 4.28392473 72.9684289 4.68981638 143.351738 45.6919443 143.412551 45.4246498"></polygon><polygon id="Fill-66" fill="#DDDDDD" points="143.805573 45.6169887 144.144995 45.420407 75.5323347 154.916397 74.7870214 155.367545"></polygon><polygon id="Fill-68" fill="#F4F4F4" points="143.805573 45.6169887 143.47888 45.426064 74.4857848 155.189349 74.7870214 155.367545"></polygon><polygon id="Fill-70" fill="#DDDDDD" points="73.4594588 4.96955633 73.7479671 5.14068139 4.41969336 113.730133 3.97985955 113.899844"></polygon><polygon id="Fill-72" fill="#F4F4F4" points="73.5823577 4.562109 73.0930249 4.27784342 3.43664359 113.581495 3.97971813 113.899703"></polygon><polygon id="Fill-74" fill="#FFFFFF" points="4.56691748 113.277571 4.13556921 113.396369 74.5910055 154.846816 74.6801036 154.563965"></polygon><polygon id="Fill-76" fill="#EAEAEA" points="4.13528636 113.396369 3.97971813 113.899844 74.4860676 155.189066 74.5907226 154.846816"></polygon><polygon id="Fill-78" fill="#515151" points="147.617419 44.4783707 150.167324 47.9828986 80.6396396 163.537564 78.0727638 160.057079"></polygon><polygon id="Fill-80" fill="#F9FAFC" points="78.0910078 160.033036 80.6394982 163.537564 4.21448473 118.963024 0.714199593 115.219487"></polygon><polygon id="Fill-82" fill="#515151" points="350.688971 159.996407 283.66735 107.591128 294.046579 90.9439133 377.525905 154.053701"></polygon></g><g id="Group-3" transform="translate(426.015484, 285.420077)"><g id="Group-20"><mask id="mask-17" fill="white"><use xlink:href="#path-16"></use></mask><g id="Clip-19"></g></g></g><g id="Group-3" transform="translate(521.005462, 364.980867) rotate(58.000000) translate(-521.005462, -364.980867) translate(475.505462, 265.980867)" fill="#757575" opacity="0.132486979"><path d="M65.3282454,154.845425 L61.8082158,200.141847 L59.6688001,199.416872 L56.3160486,156.668985 C52.3786556,156.199409 48.0670373,154.209689 43.4314089,150.429272 C35.7357071,144.371447 35.0259238,134.94167 34.6427271,125.673841 C33.8723628,112.490028 29.577114,96.6686654 28.0383708,83.4830137 C26.497642,69.2347146 23.8053377,54.624233 26.1144453,40.3704184 C28.0383708,29.3266078 33.0397827,19.3454445 43.4297742,14.3649745 C48.0479895,11.8664664 54.204948,10.0849694 60.3619064,10.0849694 C60.6339165,10.0776154 60.9039412,10.0739384 61.1779367,10.0739384 C76.4660955,10.0776154 85.8057707,19.9650157 88.4524091,34.6710988 C89.6079556,43.9352509 88.8375912,53.1994031 87.6820447,62.4672322 C86.5324546,71.7277073 81.8192288,78.5009894 81.0488644,88.1236471 C80.6656677,93.107794 76.8041826,101.175355 77.9577437,105.804674 C79.8856401,114.715836 80.6717703,127.230899 77.9735095,136.136546 C75.0501281,145.104179 70.7591102,151.74957 65.3282454,154.845425 Z" id="Combined-Shape" transform="translate(57.120032, 105.107893) rotate(-8.000000) translate(-57.120032, -105.107893) "></path></g><g id="Group-6" transform="translate(20.236627, 234.992469)"><polygon id="Fill-21" fill="#5B2418" points="19.0579143 43.8773466 22.8634083 43.8773466 22.8634083 27.8942715 19.0579143 27.8942715"></polygon><polygon id="Fill-22" fill="#5B2418" points="4.23353604 35.6048113 5.2183979 31.9287041 20.6565262 36.0660372 19.6731866 39.7421445"></polygon><g id="Group-29" transform="translate(6.088791, 0.000000)"><mask id="mask-19" fill="white"><use xlink:href="#path-18"></use></mask><g id="Clip-28"></g><path d="M0,15.3650628 C0,23.5803634 6.65809241,30.2384558 14.8703486,30.2384558 L14.8703486,30.2384558 C23.0856492,30.2384558 29.7437416,23.5803634 29.7437416,15.3650628 L29.7437416,15.3650628 C29.7437416,7.15280664 23.0856492,0.494714228 14.8703486,0.494714228 L14.8703486,0.494714228 C6.65809241,0.494714228 0,7.15280664 0,15.3650628" id="Fill-27" fill="url(#linearGradient-20)" mask="url(#mask-19)"></path></g><g id="Group-32" transform="translate(0.000000, 27.399557)"><mask id="mask-22" fill="white"><use xlink:href="#path-21"></use></mask><g id="Clip-31"></g><path d="M0.246596015,6.33690872 C0.246596015,9.56396768 2.86173154,12.1791032 6.0887905,12.1791032 L6.0887905,12.1791032 C9.31584947,12.1791032 11.930985,9.56396768 11.930985,6.33690872 L11.930985,6.33690872 C11.930985,3.11137195 9.31584947,0.494714228 6.0887905,0.494714228 L6.0887905,0.494714228 C2.86173154,0.494714228 0.246596015,3.11137195 0.246596015,6.33690872" id="Fill-30" fill="url(#linearGradient-23)" mask="url(#mask-22)"></path></g></g><g id="Group-6" transform="translate(169.835478, 329.374576)"><polygon id="Fill-21" fill="#5B2418" points="19.0579143 43.8773466 22.8634083 43.8773466 22.8634083 27.8942715 19.0579143 27.8942715"></polygon><polygon id="Fill-22" fill="#5B2418" points="4.23353604 35.6048113 5.2183979 31.9287041 20.6565262 36.0660372 19.6731866 39.7421445"></polygon><g id="Group-29" transform="translate(6.088791, 0.000000)"><mask id="mask-25" fill="white"><use xlink:href="#path-24"></use></mask><g id="Clip-28"></g><path d="M0,15.3650628 C0,23.5803634 6.65809241,30.2384558 14.8703486,30.2384558 L14.8703486,30.2384558 C23.0856492,30.2384558 29.7437416,23.5803634 29.7437416,15.3650628 L29.7437416,15.3650628 C29.7437416,7.15280664 23.0856492,0.494714228 14.8703486,0.494714228 L14.8703486,0.494714228 C6.65809241,0.494714228 0,7.15280664 0,15.3650628" id="Fill-27" fill="url(#linearGradient-20)" mask="url(#mask-25)"></path></g><g id="Group-32" transform="translate(0.000000, 27.399557)"><mask id="mask-27" fill="white"><use xlink:href="#path-26"></use></mask><g id="Clip-31"></g><path d="M0.246596015,6.33690872 C0.246596015,9.56396768 2.86173154,12.1791032 6.0887905,12.1791032 L6.0887905,12.1791032 C9.31584947,12.1791032 11.930985,9.56396768 11.930985,6.33690872 L11.930985,6.33690872 C11.930985,3.11137195 9.31584947,0.494714228 6.0887905,0.494714228 L6.0887905,0.494714228 C2.86173154,0.494714228 0.246596015,3.11137195 0.246596015,6.33690872" id="Fill-30" fill="url(#linearGradient-23)" mask="url(#mask-27)"></path></g></g><g id="Group-6" transform="translate(305.309115, 363.403499)"><polygon id="Fill-21" fill="#5B2418" points="19.0579143 43.8773466 22.8634083 43.8773466 22.8634083 27.8942715 19.0579143 27.8942715"></polygon><polygon id="Fill-22" fill="#5B2418" points="4.23353604 35.6048113 5.2183979 31.9287041 20.6565262 36.0660372 19.6731866 39.7421445"></polygon><g id="Group-29" transform="translate(6.088791, 0.000000)"><mask id="mask-29" fill="white"><use xlink:href="#path-28"></use></mask><g id="Clip-28"></g><path d="M0,15.3650628 C0,23.5803634 6.65809241,30.2384558 14.8703486,30.2384558 L14.8703486,30.2384558 C23.0856492,30.2384558 29.7437416,23.5803634 29.7437416,15.3650628 L29.7437416,15.3650628 C29.7437416,7.15280664 23.0856492,0.494714228 14.8703486,0.494714228 L14.8703486,0.494714228 C6.65809241,0.494714228 0,7.15280664 0,15.3650628" id="Fill-27" fill="url(#linearGradient-20)" mask="url(#mask-29)"></path></g><g id="Group-32" transform="translate(0.000000, 27.399557)"><mask id="mask-31" fill="white"><use xlink:href="#path-30"></use></mask><g id="Clip-31"></g><path d="M0.246596015,6.33690872 C0.246596015,9.56396768 2.86173154,12.1791032 6.0887905,12.1791032 L6.0887905,12.1791032 C9.31584947,12.1791032 11.930985,9.56396768 11.930985,6.33690872 L11.930985,6.33690872 C11.930985,3.11137195 9.31584947,0.494714228 6.0887905,0.494714228 L6.0887905,0.494714228 C2.86173154,0.494714228 0.246596015,3.11137195 0.246596015,6.33690872" id="Fill-30" fill="url(#linearGradient-23)" mask="url(#mask-31)"></path></g></g><polygon id="Fill-17" fill="#5B2418" points="450.21736 400.799984 450.21736 441.217375 457.887714 437.089175 457.887714 400.799984"></polygon><path d="M453.756013,285.449066 C449.035678,285.449066 444.315343,286.924075 440.774712,288.992742 C432.809052,293.116375 428.974636,301.380386 427.499626,310.524227 C425.72931,322.325825 427.79341,334.42273 428.974636,346.219761 C430.154339,357.136963 428.974636,368.34947 429.565248,379.26515 C429.859033,386.938548 431.629348,395.197992 437.529386,400.213633 C449.920075,411.126268 469.981118,401.685598 474.701452,386.048062 C476.770119,378.674537 473.8201,371.596318 472.342046,364.218226 C471.457649,360.385332 471.457649,356.544828 471.751433,352.41815 C472.342046,344.450968 473.8201,336.48683 474.701452,328.81952 C475.587371,321.146122 476.177984,313.475768 475.292065,305.805414 C473.262976,293.629356 466.102558,285.442977 454.381636,285.439932 C454.171573,285.439932 453.964554,285.442977 453.756013,285.449066" id="Fill-18" fill="url(#linearGradient-32)"></path></g></g></g></g></svg> 